<svg width="42" height="42" viewBox="0 0 42 42" fill="none" xmlns="http://www.w3.org/2000/svg">
<path d="M11 4.07692V1M31 4.07692V1" stroke="#655184" stroke-width="1.5" stroke-linecap="round"/>
<path d="M15 25.6154L18 22.5385V30.7436" stroke="#655184" stroke-width="1.5" stroke-linecap="round" stroke-linejoin="round"/>
<path d="M40 14.3333H18.5M1 14.3333H8.75M23 28.6923V24.5897C23 24.0457 23.2107 23.524 23.5858 23.1393C23.9609 22.7546 24.4696 22.5385 25 22.5385C25.5304 22.5385 26.0391 22.7546 26.4142 23.1393C26.7893 23.524 27 24.0457 27 24.5897V28.6923C27 29.2363 26.7893 29.7581 26.4142 30.1428C26.0391 30.5275 25.5304 30.7436 25 30.7436C24.4696 30.7436 23.9609 30.5275 23.5858 30.1428C23.2107 29.7581 23 29.2363 23 28.6923Z" stroke="#655184" stroke-width="1.5" stroke-linecap="round"/>
<path d="M25 41H17C9.458 41 5.686 41 3.344 38.5959C1 36.1938 1 32.3251 1 24.5897V20.4872C1 12.7518 1 8.88307 3.344 6.48102C5.686 4.07692 9.458 4.07692 17 4.07692H25C32.542 4.07692 36.314 4.07692 38.656 6.48102C41 8.88307 41 12.7518 41 20.4872V24.5897C41 32.3251 41 36.1938 38.656 38.5959C37.35 39.9374 35.6 40.5303 33 40.7908" stroke="#655184" stroke-width="1.5" stroke-linecap="round"/>
</svg>
