<svg width="48" height="48" viewBox="0 0 48 48" fill="none" xmlns="http://www.w3.org/2000/svg">
<path d="M30 21C30 15.477 25.747 11 20.5 11C15.253 11 11 15.477 11 21M24 38C33.389 38 41 30.941 41 21H7C7 30.941 14.611 38 24 38Z" stroke="#655184" stroke-width="2"/>
<path d="M39 21C39 17.686 36.234 15 32.822 15C31.379 15 30.052 15.48 29 16.286" stroke="#655184" stroke-width="2"/>
<path d="M33 15L36 5M38 18L42 11" stroke="#655184" stroke-width="2" stroke-linecap="round"/>
<path d="M18 37L16 43H32L30 37" stroke="#655184" stroke-width="2" stroke-linecap="round" stroke-linejoin="round"/>
</svg>
