<svg width="30" height="30" viewBox="0 0 30 30" fill="none" xmlns="http://www.w3.org/2000/svg">
<path fill-rule="evenodd" clip-rule="evenodd" d="M7.5 7.5V6C7.5 4.4087 8.29018 2.88258 9.6967 1.75736C11.1032 0.632141 13.0109 0 15 0C16.9891 0 18.8968 0.632141 20.3033 1.75736C21.7098 2.88258 22.5 4.4087 22.5 6V7.5H28.125C29.16 7.5 30 8.1735 30 9.0105V27.012C30 28.662 28.3219 30 26.2613 30H3.73875C2.74782 30 1.79742 29.6853 1.09638 29.125C0.395336 28.5647 0.00099391 27.8047 0 27.012V9.012C0 8.175 0.834375 7.5 1.875 7.5H7.5ZM9.75 7.5H20.25V6C20.25 4.88609 19.6969 3.8178 18.7123 3.03015C17.7277 2.2425 16.3924 1.8 15 1.8C13.6076 1.8 12.2723 2.2425 11.2877 3.03015C10.3031 3.8178 9.75 4.88609 9.75 6V7.5ZM7.5 9.3H2.25V27.012C2.25 27.666 2.9175 28.2 3.73875 28.2H26.2613C26.6554 28.2 27.0335 28.0749 27.3126 27.8522C27.5917 27.6295 27.749 27.3274 27.75 27.012V9.3H22.5V13.5H20.25V9.3H9.75V13.5H7.5V9.3Z" fill="#655184"/>
</svg>
